<svg xmlns="http://www.w3.org/2000/svg" version="1.1" xmlns:xlink="http://www.w3.org/1999/xlink" xmlns:svgjs="http://svgjs.com/svgjs" width="1440" height="560" preserveAspectRatio="none" viewBox="0 0 1440 560"><g mask="url(&quot;#SvgjsMask1686&quot;)" fill="none"><rect width="1440" height="560" x="0" y="0" fill="rgba(136, 84, 208, 1)"></rect><use xlink:href="#SvgjsG1700" transform="translate(0, 0)" fill="rgba(165, 94, 234, 1)"></use><use xlink:href="#SvgjsG1700" transform="translate(0, 551)" fill="rgba(165, 94, 234, 1)"></use><use xlink:href="#SvgjsG1700" transform="translate(551, 0)" fill="rgba(165, 94, 234, 1)"></use><use xlink:href="#SvgjsG1700" transform="translate(551, 551)" fill="rgba(165, 94, 234, 1)"></use><use xlink:href="#SvgjsG1700" transform="translate(1102, 0)" fill="rgba(165, 94, 234, 1)"></use><use xlink:href="#SvgjsG1700" transform="translate(1102, 551)" fill="rgba(165, 94, 234, 1)"></use></g><defs><mask id="SvgjsMask1686"><rect width="1440" height="560" fill="#ffffff"></rect></mask><g id="SvgjsG1699"><path d="M11.66 9.59a46.75 46.75 0 0 1-0.35-0.56c-0.1-0.16-0.2-0.32-0.29-0.48-0.59-0.95-1.24-1.85-2.17-2.28A2.81 2.81 0 0 0 8.62 6.17c-0.08-0.03-0.16-0.05-0.25-0.07-0.99-0.26-2.07 0.01-3.14 0.35l0.07 0.1c0.07 0.12 0.14 0.23 0.21 0.35C6.57 6.56 7.57 6.33 8.44 6.65c0.87 0.32 1.49 1.13 2.08 2.07a35.1 35.1 0 0 1 0.36 0.58c0.09 0.15 0.19 0.31 0.28 0.46C11.81 10.79 12.51 11.77 13.57 12.16c0.41 0.15 0.84 0.19 1.28 0.17l0.19-0.52c-0.45 0.05-0.88 0.02-1.29-0.13-0.88-0.32-1.49-1.14-2.09-2.09z"></path><path d="M11.53 8.75c0.02 0.03 0.04 0.06 0.06 0.09 0.07 0.12 0.14 0.23 0.22 0.36 0.38-0.12 0.76-0.23 1.12-0.31l-0.47 1.29c0.12 0.16 0.25 0.32 0.38 0.46L13.5 8.81c0.35-0.03 0.68-0.02 1 0.06l-0.86 2.39c0.07 0.04 0.14 0.07 0.21 0.09 0.09 0.03 0.18 0.05 0.27 0.08L14.98 9.04c0.31 0.15 0.58 0.36 0.84 0.63L16.01 9.14C15.69 8.85 15.33 8.61 14.92 8.46c-1.06-0.39-2.23-0.09-3.39 0.29z m-7.18-1.47c-0.02-0.04-0.05-0.07-0.07-0.11-0.07-0.11-0.14-0.22-0.21-0.33-1.06 0.34-2.05 0.57-2.92 0.25C0.74 6.94 0.4 6.68 0.09 6.35l-0.19 0.52C0.21 7.18 0.56 7.42 0.97 7.57c1.06 0.38 2.23 0.09 3.38-0.28z"></path><path d="M1.02 6.67c0.08 0.04 0.15 0.08 0.24 0.1 0.08 0.03 0.16 0.05 0.24 0.07L2.37 4.45c0.3 0.15 0.56 0.35 0.81 0.6-0.01 0.01-0.01 0.02-0.02 0.03l-0.65 1.79a5.82 5.82 0 0 0 0.59-0.11L3.56 5.48c0.36 0.45 0.68 0.97 1.01 1.52C5.3 8.19 6.05 9.42 7.27 9.86c1.06 0.38 2.22 0.09 3.38-0.28l-0.08-0.12c-0.07-0.11-0.14-0.22-0.2-0.33-0.38 0.12-0.74 0.23-1.1 0.3L9.73 8.16A5.82 5.82 0 0 0 9.35 7.71l-0.65 1.77c0 0.01 0 0.02 0 0.03-0.35 0.03-0.68 0.02-1.01-0.06L8.56 7.07a1.97 1.97 0 0 0-0.24-0.11c-0.08-0.03-0.16-0.05-0.24-0.06l-0.87 2.38c-0.3-0.15-0.57-0.35-0.81-0.59 0.01-0.01 0.01-0.02 0.02-0.04L7.07 6.86a5.63 5.63 0 0 0-0.58 0.11l-0.47 1.29c-0.36-0.45-0.68-0.98-1.01-1.53C4.28 5.55 3.53 4.32 2.31 3.87c-0.41-0.15-0.83-0.2-1.25-0.19l-0.19 0.52c0.35-0.02 0.7-0.01 1.02 0.08L1.02 6.67z"></path></g><g id="SvgjsG1695"><path d="M2.64 6.73L0.28 5.87 0.73 4.62l2.36 0.86-0.45 1.25zM5.09 3.3L4.03 1.03l1.2-0.56 1.06 2.27-1.2 0.56z m-2.33 6.4l0.56 1.2-2.28 1.06-0.55-1.2 2.27-1.06z m7.73-6.64l-1.25-0.45L10.1 0.25l1.25 0.45-0.86 2.36z m-4.99 9.84l1.25 0.46-0.86 2.35-1.25-0.45 0.86-2.36zM13.25 6.27l-0.58-1.21 2.29-1.05 0.56 1.2-2.27 1.06z m-2.32 6.38l1.05 2.29-1.2 0.56-1.06-2.27 1.21-0.58z m4.81-2.57l-0.45 1.25-2.36-0.86L13.38 9.22l2.36 0.86z"></path><path d="M3.97 6.51a4.18 4.18 0 1 0 7.86 2.87 4.18 4.18 0 1 0-7.86-2.87"></path></g><g id="SvgjsG1697"><path d="M14.31 11.82c0.28 0.1 0.62-0.03 0.75-0.29 0 0 0.19-0.37 0.36-0.83s0.25-0.86 0.26-0.86c0.06-0.29-0.11-0.61-0.39-0.71l-1.44-0.52c-0.28-0.1-0.5-0.38-0.49-0.63s0.15-0.97 0.42-1.09l1.38-0.65c0.27-0.12 0.4-0.45 0.3-0.73l-0.75-1.62c-0.15-0.26-0.49-0.36-0.76-0.24l-1.38 0.64c-0.27 0.13-0.62 0.09-0.79-0.09s-0.58-0.8-0.48-1.07L11.82 1.69c0.1-0.28-0.03-0.62-0.29-0.75 0 0-0.37-0.19-0.83-0.36s-0.86-0.25-0.86-0.26c-0.29-0.06-0.61 0.11-0.71 0.39l-0.52 1.44c-0.1 0.28-0.38 0.5-0.63 0.49s-0.97-0.15-1.09-0.42l-0.65-1.38C6.12 0.57 5.79 0.44 5.51 0.54l-1.63 0.75c-0.26 0.15-0.36 0.49-0.23 0.76l0.64 1.38c0.12 0.27 0.09 0.62-0.09 0.79s-0.8 0.58-1.07 0.48L1.69 4.18c-0.28-0.1-0.62 0.03-0.75 0.29 0 0-0.19 0.37-0.36 0.83s-0.25 0.86-0.26 0.86c-0.06 0.29 0.11 0.61 0.39 0.71l1.44 0.52c0.28 0.1 0.5 0.38 0.49 0.63 0 0.24-0.15 0.97-0.42 1.1l-1.38 0.64C0.57 9.89 0.44 10.21 0.54 10.49l0.75 1.63c0.15 0.26 0.49 0.36 0.76 0.23l1.38-0.64c0.27-0.12 0.62-0.08 0.79 0.09s0.58 0.8 0.48 1.08l-0.52 1.43c-0.1 0.28 0.03 0.62 0.29 0.75 0 0 0.37 0.19 0.83 0.36s0.86 0.25 0.86 0.26c0.29 0.06 0.61-0.11 0.71-0.39l0.52-1.43c0.1-0.28 0.38-0.5 0.63-0.5 0.24 0 0.97 0.15 1.1 0.42l0.64 1.38c0.12 0.27 0.45 0.4 0.73 0.31l1.63-0.76c0.26-0.15 0.36-0.49 0.23-0.76l-0.64-1.38c-0.12-0.27-0.08-0.62 0.09-0.79 0.17-0.17 0.8-0.58 1.08-0.48l1.43 0.52zM7.01 10.72c-1.5-0.55-2.27-2.2-1.73-3.71 0.55-1.5 2.21-2.27 3.71-1.73S11.26 7.49 10.72 8.99 8.51 11.26 7.01 10.72z"></path></g><g id="SvgjsG1691"><path d="M9.77 3.55a0.88 0.88 0 1 0 0.6-1.64 0.88 0.88 0 0 0-0.6 1.65m1.22 0.74L8.34 3.34c-0.58-0.21-1.23 0.1-1.44 0.69l-0.72 1.97c-0.18 0.49 0.47 0.73 0.65 0.24l0.69-1.91 0.68 0.25L7.32 6.98c0.31 0.21 0.64 0.4 1.02 0.53 0.37 0.13 0.74 0.2 1.11 0.24L10.33 5.35l0.67 0.24-0.7 1.91c-0.18 0.49 0.47 0.73 0.65 0.23L11.66 5.78a1.15 1.15 0 0 0-0.67-1.48m0.23 4.97a5.91 5.91 0 0 1-6.24-2.25l-1.07 0.78a7.18 7.18 0 0 0 3.38 2.55c1.42 0.52 2.89 0.56 4.26 0.22l-0.33-1.3z"></path><path d="M11.78 11.9a8.4 8.4 0 0 1-4.95-0.26 8.41 8.41 0 0 1-3.95-2.96l-1.08 0.76a9.7 9.7 0 0 0 4.57 3.45c1.91 0.69 3.89 0.75 5.73 0.29l-0.32-1.28z"></path><path d="M12.33 14.5a10.92 10.92 0 0 1-6.43-0.33A10.93 10.93 0 0 1 0.77 10.3l-1.06 0.78a12.21 12.21 0 0 0 5.74 4.33 12.23 12.23 0 0 0 7.21 0.37l-0.33-1.28z"></path></g><g id="SvgjsG1689"><path d="M5.89 12.18S5.43 10.39 2.92 9.47C0.61 8.63-0.83 8.87-0.83 8.87L2.56-0.43s1.44-0.23 3.75 0.59C8.83 1.05 9.28 2.88 9.28 2.88L5.89 12.18z m1.02 0.38s1.51-1.08 4.03-0.17c2.3 0.84 3.26 1.94 3.25 1.94L17.58 5.03s-0.95-1.1-3.25-1.95c-2.51-0.93-4.03 0.18-4.03 0.18l-3.39 9.3z"></path><path d="M5.37 15.27S4.65 12.54 2.13 11.62c-2.3-0.84-3.74-0.6-3.74-0.6l0.4-1.12s1.44-0.23 3.75 0.59c2.52 0.9 3.23 3.67 3.23 3.67L5.37 15.27z m0 0s2.31-1.63 4.82-0.72c2.3 0.84 3.26 1.94 3.26 1.95l0.4-1.12s-0.95-1.1-3.25-1.96c-2.51-0.93-4.83 0.73-4.83 0.74l-0.4 1.11z"></path></g><g id="SvgjsG1694"><path d="M-1.86 11.84l14.77 5.38L18.04 3.14 3.26-2.24l-5.12 14.08zM3.36 1.42c0.38-1.04 1.52-1.57 2.57-1.19l8.49 3.09a2 2 0 0 1 1.2 2.56L13.76 10.99 12.62 10.57l-0.01-2.17a0.32 0.32 0 0 0-0.56-0.2c-0.09 0.1-0.41 0.49-0.8 0.97 0.16-1.36 0.49-4.25 0.49-4.24a0.32 0.32 0 0 0-0.23-0.34c-0.15-0.05-0.31 0.02-0.37 0.16s-2.06 4.14-2.65 5.33c-0.11-0.47-0.23-0.94-0.23-0.94a0.32 0.32 0 0 0-0.2-0.23l-1.14-0.41a1168.61 1168.61 0 0 0-0.01-2.18 0.32 0.32 0 0 0-0.21-0.3 0.31 0.31 0 0 0-0.35 0.1l-0.81 0.98c0.16-1.36 0.49-4.25 0.49-4.25a0.32 0.32 0 0 0-0.59-0.18c0 0-2.06 4.14-2.65 5.33L2.56 7.06a0.32 0.32 0 0 0-0.2-0.22L1.5 6.53 3.36 1.42z m6.84 13.49L1.71 11.81a2 2 0 0 1-1.2-2.57l0.77-2.12 0.7 0.25c0.07 0.27 0.39 1.62 0.39 1.63a0.32 0.32 0 0 0 0.6 0.06c0.06-0.12 1.36-2.73 2.22-4.48-0.18 1.57-0.4 3.51-0.4 3.51-0.02 0.14 0.06 0.27 0.19 0.33 0.13 0.06 0.28 0.02 0.37-0.09 0 0 0.49-0.6 0.93-1.13 0 0.7 0.01 1.52 0 1.52a0.31 0.31 0 0 0 0.21 0.3l1.2 0.43c0.07 0.27 0.39 1.62 0.39 1.62a0.32 0.32 0 0 0 0.27 0.24c0.13 0.02 0.26-0.05 0.32-0.17s1.36-2.73 2.23-4.49c-0.18 1.58-0.41 3.51-0.41 3.52-0.02 0.14 0.06 0.27 0.19 0.32 0.13 0.06 0.28 0.02 0.37-0.09 0 0 0.49-0.6 0.93-1.12 0 0.7 0 1.52 0.01 1.51a0.32 0.32 0 0 0 0.2 0.3l1.35 0.49-0.77 2.12a2 2 0 0 1-2.57 1.2z" fill-rule="evenodd"></path></g><g id="SvgjsG1690"><path d="M-0.27 11.17l13.18 4.8L16.54 5.97 3.37 1.18l-3.64 9.99z m14.86-4.85L8.86 8.99c-0.59 0.28-1.35-0.01-1.63-0.61l-2.65-5.7 10 3.64z m-10.86-3.22l2.16 4.66-4.67 2.18 2.5-6.84z m-2.12 7.72l4.67-2.17 0.09 0.19c0.53 1.06 1.81 1.53 2.87 1.04l0.2-0.09 2.2 4.68-10.03-3.65z m10.91 3.23L10.34 9.39 15 7.21 12.51 14.05z" fill-rule="evenodd"></path></g><g id="SvgjsG1692"><path d="M14.17 8.15c1.1-3.03-0.46-6.39-3.49-7.5-3.03-1.1-6.39 0.46-7.5 3.5L1.78 3.64l-3.18 8.74 13.78 5.01 3.19-8.74-1.4-0.5z m-8.74-3.18c0.65-1.79 2.63-2.71 4.42-2.07S12.57 5.54 11.92 7.33L5.43 4.97z m2.48 5.57l-0.92 2.51-1.48-0.54L6.42 10c-0.23-0.34-0.3-0.78-0.14-1.21 0.25-0.7 1.02-1.05 1.71-0.8s1.05 1.02 0.8 1.72c-0.15 0.42-0.49 0.71-0.88 0.83z"></path></g><g id="SvgjsG1687"><path d="M6.25-1.13l5.94 11.68-4.48-1.21 0.48 6.37-1.92 0.15-0.39-6.42-4.13 1.81L6.25-1.13"></path></g><g id="SvgjsG1698"><path d="M9.87 2.87C5.15 1.16 0.49 5.27 0.49 5.27S1.42 11.41 6.13 13.13 15.51 10.73 15.51 10.73 14.58 4.59 9.87 2.87z m-2.98 8.19c-1.69-0.61-2.56-2.49-1.95-4.17S7.43 4.33 9.11 4.94 11.67 7.43 11.06 9.11s-2.49 2.56-4.17 1.95z"></path><path d="M6.17 7.42a1.92 1.92 0 1 0 3.61 1.31 1.92 1.92 0 1 0-3.61-1.31"></path></g><g id="SvgjsG1696"><path d="M3.3 1.6l-2.37 6.53-0.98-0.36A0.36 0.36 0 0 1-0.26 7.31L2.8-1.11C2.91-1.39 3.2-1.55 3.5-1.44l4.31 1.57C8.1 0.23 8.23 0.54 8.13 0.83l-0.18 0.49 6.67 2.43c0.19 0.07 0.28 0.27 0.22 0.46l-0.69 1.89-5.7-2.07L8.63 3.53c0.1-0.28-0.02-0.59-0.32-0.7L4 1.26c-0.29-0.11-0.59 0.05-0.7 0.34z" fill-rule="evenodd"></path><path d="M13.13 17.05c-0.07 0.19-0.27 0.28-0.45 0.21L1.01 13.01c-0.19-0.07-0.28-0.27-0.21-0.45L3.87 4.13c0.1-0.28 0.4-0.44 0.69-0.33l4.31 1.57c0.29 0.11 0.42 0.42 0.32 0.7l-0.18 0.5 6.67 2.42c0.19 0.07 0.28 0.27 0.22 0.46l-2.77 7.6z" fill-rule="evenodd"></path></g><g id="SvgjsG1693"><path d="M0.69 4.71L18.25 3.22 5.81 15.71l2.13-7.68z"></path></g><g id="SvgjsG1688"><path d="M2.29 4.05l0.78 0.93 0.2 0.25-1.25 1.05a0.83 0.83 0 0 0-0.25 0.35c-0.05 0.13-0.06 0.27-0.03 0.42 0 0 0.25 1.42 0.45 2.57 0.09-0.12 0.19-0.23 0.3-0.33L4.95 7.23l0.21 0.25 0.78 0.93-0.57-3.23L2.29 4.05z" fill-rule="evenodd"></path><path d="M3.88 8.86l-1.02 0.86a0.95 0.95 0 0 0-0.3 0.41 0.96 0.96 0 0 0 0.59 1.25L6.2 12.49 7.09 10.03 3.88 8.86zM14.78 4.13l-1.2 0.21-0.32 0.06-0.28-1.61a0.8 0.8 0 0 0-0.52-0.63l-2.46-0.9c0.06 0.14 0.11 0.28 0.14 0.43l0.56 3.16-0.32 0.06-1.2 0.21 3.08 1.12L14.78 4.13z" fill-rule="evenodd"></path><path d="M9.82 3.1L9.59 1.79A1.02 1.02 0 0 0 9.38 1.33 1.03 1.03 0 0 0 8.96 1.04a0.97 0.97 0 0 0-0.95 0.18l-2.49 2.08 1.68 2c0.37-0.31 2.39-2.01 2.62-2.2m-1.42 11.79l0.53-1.45 1.53 0.56a0.81 0.81 0 0 0 0.43 0.04 0.78 0.78 0 0 0 0.39-0.18l2-1.67c-0.14-0.02-0.29-0.05-0.44-0.1L9.82 10.99l0.11-0.3 0.42-1.15-2.52 2.11 0.57 3.24z" fill-rule="evenodd"></path><path d="M11.77 11.11l1.25 0.45a0.99 0.99 0 0 0 0.97-0.16 0.98 0.98 0 0 0 0.32-0.92l-0.56-3.2-2.57 0.45 0.59 3.38" fill-rule="evenodd"></path></g><g id="SvgjsG1700"><use xlink:href="#SvgjsG1687" transform="translate(0, 0) scale(1.9)" fill="rgba(165, 94, 234, 1)"></use><use xlink:href="#SvgjsG1688" transform="translate(0, 55.099999999999994) scale(1.9)" fill="rgba(165, 94, 234, 1)"></use><use xlink:href="#SvgjsG1689" transform="translate(0, 110.19999999999999) scale(1.9)" fill="rgba(165, 94, 234, 1)"></use><use xlink:href="#SvgjsG1690" transform="translate(0, 165.29999999999998) scale(1.9)" fill="rgba(165, 94, 234, 1)"></use><use xlink:href="#SvgjsG1691" transform="translate(0, 220.39999999999998) scale(1.9)" fill="rgba(165, 94, 234, 1)"></use><use xlink:href="#SvgjsG1688" transform="translate(0, 275.5) scale(1.9)" fill="rgba(165, 94, 234, 1)"></use><use xlink:href="#SvgjsG1692" transform="translate(0, 330.59999999999997) scale(1.9)" fill="rgba(165, 94, 234, 1)"></use><use xlink:href="#SvgjsG1693" transform="translate(0, 385.69999999999993) scale(1.9)" fill="rgba(165, 94, 234, 1)"></use><use xlink:href="#SvgjsG1688" transform="translate(0, 440.79999999999995) scale(1.9)" fill="rgba(165, 94, 234, 1)"></use><use xlink:href="#SvgjsG1694" transform="translate(0, 495.9) scale(1.9)" fill="rgba(165, 94, 234, 1)"></use><use xlink:href="#SvgjsG1692" transform="translate(55.099999999999994, 0) scale(1.9)" fill="rgba(165, 94, 234, 1)"></use><use xlink:href="#SvgjsG1695" transform="translate(55.099999999999994, 55.099999999999994) scale(1.9)" fill="rgba(165, 94, 234, 1)"></use><use xlink:href="#SvgjsG1690" transform="translate(55.099999999999994, 110.19999999999999) scale(1.9)" fill="rgba(165, 94, 234, 1)"></use><use xlink:href="#SvgjsG1692" transform="translate(55.099999999999994, 165.29999999999998) scale(1.9)" fill="rgba(165, 94, 234, 1)"></use><use xlink:href="#SvgjsG1696" transform="translate(55.099999999999994, 220.39999999999998) scale(1.9)" fill="rgba(165, 94, 234, 1)"></use><use xlink:href="#SvgjsG1691" transform="translate(55.099999999999994, 275.5) scale(1.9)" fill="rgba(165, 94, 234, 1)"></use><use xlink:href="#SvgjsG1694" transform="translate(55.099999999999994, 330.59999999999997) scale(1.9)" fill="rgba(165, 94, 234, 1)"></use><use xlink:href="#SvgjsG1696" transform="translate(55.099999999999994, 385.69999999999993) scale(1.9)" fill="rgba(165, 94, 234, 1)"></use><use xlink:href="#SvgjsG1693" transform="translate(55.099999999999994, 440.79999999999995) scale(1.9)" fill="rgba(165, 94, 234, 1)"></use><use xlink:href="#SvgjsG1688" transform="translate(55.099999999999994, 495.9) scale(1.9)" fill="rgba(165, 94, 234, 1)"></use><use xlink:href="#SvgjsG1693" transform="translate(110.19999999999999, 0) scale(1.9)" fill="rgba(165, 94, 234, 1)"></use><use xlink:href="#SvgjsG1690" transform="translate(110.19999999999999, 55.099999999999994) scale(1.9)" fill="rgba(165, 94, 234, 1)"></use><use xlink:href="#SvgjsG1687" transform="translate(110.19999999999999, 110.19999999999999) scale(1.9)" fill="rgba(165, 94, 234, 1)"></use><use xlink:href="#SvgjsG1693" transform="translate(110.19999999999999, 165.29999999999998) scale(1.9)" fill="rgba(165, 94, 234, 1)"></use><use xlink:href="#SvgjsG1697" transform="translate(110.19999999999999, 220.39999999999998) scale(1.9)" fill="rgba(165, 94, 234, 1)"></use><use xlink:href="#SvgjsG1694" transform="translate(110.19999999999999, 275.5) scale(1.9)" fill="rgba(165, 94, 234, 1)"></use><use xlink:href="#SvgjsG1692" transform="translate(110.19999999999999, 330.59999999999997) scale(1.9)" fill="rgba(165, 94, 234, 1)"></use><use xlink:href="#SvgjsG1695" transform="translate(110.19999999999999, 385.69999999999993) scale(1.9)" fill="rgba(165, 94, 234, 1)"></use><use xlink:href="#SvgjsG1690" transform="translate(110.19999999999999, 440.79999999999995) scale(1.9)" fill="rgba(165, 94, 234, 1)"></use><use xlink:href="#SvgjsG1696" transform="translate(110.19999999999999, 495.9) scale(1.9)" fill="rgba(165, 94, 234, 1)"></use><use xlink:href="#SvgjsG1691" transform="translate(165.29999999999998, 0) scale(1.9)" fill="rgba(165, 94, 234, 1)"></use><use xlink:href="#SvgjsG1692" transform="translate(165.29999999999998, 55.099999999999994) scale(1.9)" fill="rgba(165, 94, 234, 1)"></use><use xlink:href="#SvgjsG1692" transform="translate(165.29999999999998, 110.19999999999999) scale(1.9)" fill="rgba(165, 94, 234, 1)"></use><use xlink:href="#SvgjsG1698" transform="translate(165.29999999999998, 165.29999999999998) scale(1.9)" fill="rgba(165, 94, 234, 1)"></use><use xlink:href="#SvgjsG1687" transform="translate(165.29999999999998, 220.39999999999998) scale(1.9)" fill="rgba(165, 94, 234, 1)"></use><use xlink:href="#SvgjsG1698" transform="translate(165.29999999999998, 275.5) scale(1.9)" fill="rgba(165, 94, 234, 1)"></use><use xlink:href="#SvgjsG1691" transform="translate(165.29999999999998, 330.59999999999997) scale(1.9)" fill="rgba(165, 94, 234, 1)"></use><use xlink:href="#SvgjsG1696" transform="translate(165.29999999999998, 385.69999999999993) scale(1.9)" fill="rgba(165, 94, 234, 1)"></use><use xlink:href="#SvgjsG1688" transform="translate(165.29999999999998, 440.79999999999995) scale(1.9)" fill="rgba(165, 94, 234, 1)"></use><use xlink:href="#SvgjsG1692" transform="translate(165.29999999999998, 495.9) scale(1.9)" fill="rgba(165, 94, 234, 1)"></use><use xlink:href="#SvgjsG1696" transform="translate(220.39999999999998, 0) scale(1.9)" fill="rgba(165, 94, 234, 1)"></use><use xlink:href="#SvgjsG1689" transform="translate(220.39999999999998, 55.099999999999994) scale(1.9)" fill="rgba(165, 94, 234, 1)"></use><use xlink:href="#SvgjsG1698" transform="translate(220.39999999999998, 110.19999999999999) scale(1.9)" fill="rgba(165, 94, 234, 1)"></use><use xlink:href="#SvgjsG1691" transform="translate(220.39999999999998, 165.29999999999998) scale(1.9)" fill="rgba(165, 94, 234, 1)"></use><use xlink:href="#SvgjsG1698" transform="translate(220.39999999999998, 220.39999999999998) scale(1.9)" fill="rgba(165, 94, 234, 1)"></use><use xlink:href="#SvgjsG1694" transform="translate(220.39999999999998, 275.5) scale(1.9)" fill="rgba(165, 94, 234, 1)"></use><use xlink:href="#SvgjsG1697" transform="translate(220.39999999999998, 330.59999999999997) scale(1.9)" fill="rgba(165, 94, 234, 1)"></use><use xlink:href="#SvgjsG1697" transform="translate(220.39999999999998, 385.69999999999993) scale(1.9)" fill="rgba(165, 94, 234, 1)"></use><use xlink:href="#SvgjsG1697" transform="translate(220.39999999999998, 440.79999999999995) scale(1.9)" fill="rgba(165, 94, 234, 1)"></use><use xlink:href="#SvgjsG1689" transform="translate(220.39999999999998, 495.9) scale(1.9)" fill="rgba(165, 94, 234, 1)"></use><use xlink:href="#SvgjsG1692" transform="translate(275.5, 0) scale(1.9)" fill="rgba(165, 94, 234, 1)"></use><use xlink:href="#SvgjsG1696" transform="translate(275.5, 55.099999999999994) scale(1.9)" fill="rgba(165, 94, 234, 1)"></use><use xlink:href="#SvgjsG1698" transform="translate(275.5, 110.19999999999999) scale(1.9)" fill="rgba(165, 94, 234, 1)"></use><use xlink:href="#SvgjsG1692" transform="translate(275.5, 165.29999999999998) scale(1.9)" fill="rgba(165, 94, 234, 1)"></use><use xlink:href="#SvgjsG1689" transform="translate(275.5, 220.39999999999998) scale(1.9)" fill="rgba(165, 94, 234, 1)"></use><use xlink:href="#SvgjsG1695" transform="translate(275.5, 275.5) scale(1.9)" fill="rgba(165, 94, 234, 1)"></use><use xlink:href="#SvgjsG1698" transform="translate(275.5, 330.59999999999997) scale(1.9)" fill="rgba(165, 94, 234, 1)"></use><use xlink:href="#SvgjsG1697" transform="translate(275.5, 385.69999999999993) scale(1.9)" fill="rgba(165, 94, 234, 1)"></use><use xlink:href="#SvgjsG1695" transform="translate(275.5, 440.79999999999995) scale(1.9)" fill="rgba(165, 94, 234, 1)"></use><use xlink:href="#SvgjsG1696" transform="translate(275.5, 495.9) scale(1.9)" fill="rgba(165, 94, 234, 1)"></use><use xlink:href="#SvgjsG1690" transform="translate(330.59999999999997, 0) scale(1.9)" fill="rgba(165, 94, 234, 1)"></use><use xlink:href="#SvgjsG1692" transform="translate(330.59999999999997, 55.099999999999994) scale(1.9)" fill="rgba(165, 94, 234, 1)"></use><use xlink:href="#SvgjsG1699" transform="translate(330.59999999999997, 110.19999999999999) scale(1.9)" fill="rgba(165, 94, 234, 1)"></use><use xlink:href="#SvgjsG1688" transform="translate(330.59999999999997, 165.29999999999998) scale(1.9)" fill="rgba(165, 94, 234, 1)"></use><use xlink:href="#SvgjsG1698" transform="translate(330.59999999999997, 220.39999999999998) scale(1.9)" fill="rgba(165, 94, 234, 1)"></use><use xlink:href="#SvgjsG1687" transform="translate(330.59999999999997, 275.5) scale(1.9)" fill="rgba(165, 94, 234, 1)"></use><use xlink:href="#SvgjsG1689" transform="translate(330.59999999999997, 330.59999999999997) scale(1.9)" fill="rgba(165, 94, 234, 1)"></use><use xlink:href="#SvgjsG1689" transform="translate(330.59999999999997, 385.69999999999993) scale(1.9)" fill="rgba(165, 94, 234, 1)"></use><use xlink:href="#SvgjsG1699" transform="translate(330.59999999999997, 440.79999999999995) scale(1.9)" fill="rgba(165, 94, 234, 1)"></use><use xlink:href="#SvgjsG1689" transform="translate(330.59999999999997, 495.9) scale(1.9)" fill="rgba(165, 94, 234, 1)"></use><use xlink:href="#SvgjsG1693" transform="translate(385.69999999999993, 0) scale(1.9)" fill="rgba(165, 94, 234, 1)"></use><use xlink:href="#SvgjsG1695" transform="translate(385.69999999999993, 55.099999999999994) scale(1.9)" fill="rgba(165, 94, 234, 1)"></use><use xlink:href="#SvgjsG1694" transform="translate(385.69999999999993, 110.19999999999999) scale(1.9)" fill="rgba(165, 94, 234, 1)"></use><use xlink:href="#SvgjsG1696" transform="translate(385.69999999999993, 165.29999999999998) scale(1.9)" fill="rgba(165, 94, 234, 1)"></use><use xlink:href="#SvgjsG1690" transform="translate(385.69999999999993, 220.39999999999998) scale(1.9)" fill="rgba(165, 94, 234, 1)"></use><use xlink:href="#SvgjsG1692" transform="translate(385.69999999999993, 275.5) scale(1.9)" fill="rgba(165, 94, 234, 1)"></use><use xlink:href="#SvgjsG1689" transform="translate(385.69999999999993, 330.59999999999997) scale(1.9)" fill="rgba(165, 94, 234, 1)"></use><use xlink:href="#SvgjsG1698" transform="translate(385.69999999999993, 385.69999999999993) scale(1.9)" fill="rgba(165, 94, 234, 1)"></use><use xlink:href="#SvgjsG1694" transform="translate(385.69999999999993, 440.79999999999995) scale(1.9)" fill="rgba(165, 94, 234, 1)"></use><use xlink:href="#SvgjsG1693" transform="translate(385.69999999999993, 495.9) scale(1.9)" fill="rgba(165, 94, 234, 1)"></use><use xlink:href="#SvgjsG1689" transform="translate(440.79999999999995, 0) scale(1.9)" fill="rgba(165, 94, 234, 1)"></use><use xlink:href="#SvgjsG1694" transform="translate(440.79999999999995, 55.099999999999994) scale(1.9)" fill="rgba(165, 94, 234, 1)"></use><use xlink:href="#SvgjsG1692" transform="translate(440.79999999999995, 110.19999999999999) scale(1.9)" fill="rgba(165, 94, 234, 1)"></use><use xlink:href="#SvgjsG1688" transform="translate(440.79999999999995, 165.29999999999998) scale(1.9)" fill="rgba(165, 94, 234, 1)"></use><use xlink:href="#SvgjsG1696" transform="translate(440.79999999999995, 220.39999999999998) scale(1.9)" fill="rgba(165, 94, 234, 1)"></use><use xlink:href="#SvgjsG1690" transform="translate(440.79999999999995, 275.5) scale(1.9)" fill="rgba(165, 94, 234, 1)"></use><use xlink:href="#SvgjsG1698" transform="translate(440.79999999999995, 330.59999999999997) scale(1.9)" fill="rgba(165, 94, 234, 1)"></use><use xlink:href="#SvgjsG1696" transform="translate(440.79999999999995, 385.69999999999993) scale(1.9)" fill="rgba(165, 94, 234, 1)"></use><use xlink:href="#SvgjsG1689" transform="translate(440.79999999999995, 440.79999999999995) scale(1.9)" fill="rgba(165, 94, 234, 1)"></use><use xlink:href="#SvgjsG1694" transform="translate(440.79999999999995, 495.9) scale(1.9)" fill="rgba(165, 94, 234, 1)"></use><use xlink:href="#SvgjsG1692" transform="translate(495.9, 0) scale(1.9)" fill="rgba(165, 94, 234, 1)"></use><use xlink:href="#SvgjsG1691" transform="translate(495.9, 55.099999999999994) scale(1.9)" fill="rgba(165, 94, 234, 1)"></use><use xlink:href="#SvgjsG1689" transform="translate(495.9, 110.19999999999999) scale(1.9)" fill="rgba(165, 94, 234, 1)"></use><use xlink:href="#SvgjsG1698" transform="translate(495.9, 165.29999999999998) scale(1.9)" fill="rgba(165, 94, 234, 1)"></use><use xlink:href="#SvgjsG1689" transform="translate(495.9, 220.39999999999998) scale(1.9)" fill="rgba(165, 94, 234, 1)"></use><use xlink:href="#SvgjsG1688" transform="translate(495.9, 275.5) scale(1.9)" fill="rgba(165, 94, 234, 1)"></use><use xlink:href="#SvgjsG1689" transform="translate(495.9, 330.59999999999997) scale(1.9)" fill="rgba(165, 94, 234, 1)"></use><use xlink:href="#SvgjsG1691" transform="translate(495.9, 385.69999999999993) scale(1.9)" fill="rgba(165, 94, 234, 1)"></use><use xlink:href="#SvgjsG1697" transform="translate(495.9, 440.79999999999995) scale(1.9)" fill="rgba(165, 94, 234, 1)"></use><use xlink:href="#SvgjsG1693" transform="translate(495.9, 495.9) scale(1.9)" fill="rgba(165, 94, 234, 1)"></use></g></defs></svg>